# xmcd
#
# Track frame offsets: 
#        150
#        13130
#        31670
#        52345
#        75155
#        94385
#        116720
#        137710
#        139910
#        158125
#        182012
#        201565
#        223675
#        240559
#        260365
#
# Disc length: 3592 seconds
#
# Revision: 4
# Processed by: cddbd v1.5.2PL0 Copyright (c) Steve Scherf et al.
# Submitted via: ExactAudioCopy v1.0b3
#
DISCID=d70e060f
DTITLE=Pebbles - Straight From My Heart
DYEAR=1995
DGENRE=Soul
TTITLE0=Club Laid Back (Intro)
TTITLE1=Like The Last Time
TTITLE2="Are You Ready?"
TTITLE3=I Can't Help It
TTITLE4=You
TTITLE5=Happy
TTITLE6=Soul Replacement
TTITLE7=Club Laid Back (Reprise)
TTITLE8=It's Alright
TTITLE9=Show Me
TTITLE10=Straight From My Heart
TTITLE11=Angel
TTITLE12=One More Try
TTITLE13=Long Way To Travel
TTITLE14=Club Laid Back (Outro)
EXTD=YEAR: 1995
EXTT0=
EXTT1=
EXTT2=
EXTT3=
EXTT4=
EXTT5=
EXTT6=
EXTT7=
EXTT8=
EXTT9=
EXTT10=
EXTT11=
EXTT12=
EXTT13=
EXTT14=
PLAYORDER=
